<?xml version="1.0" standalone="no"?>
<!DOCTYPE svg PUBLIC "-//W3C//DTD SVG 20010904//EN"
 "http://www.w3.org/TR/2001/REC-SVG-20010904/DTD/svg10.dtd">
<svg version="1.0" xmlns="http://www.w3.org/2000/svg"
 width="346.000000pt" height="346.000000pt" viewBox="0 0 346.000000 346.000000"
 preserveAspectRatio="xMidYMid meet">
<metadata>
Created by potrace 1.11, written by Peter Selinger 2001-2013
</metadata>
<g transform="translate(0.000000,346.000000) scale(0.100000,-0.100000)"
fill="#000000" stroke="none">
<path d="M65 2808 c-3 -13 -4 -517 -3 -1122 l3 -1098 1545 0 c850 1 1602 1
1673 1 l127 1 0 1120 0 1120 -1670 0 -1670 0 -5 -22z m3305 -1098 c0 -1022 -1
-1080 -17 -1080 -24 -1 -3157 -1 -3210 0 l-43 0 0 1080 0 1080 1635 0 1635 0
0 -1080z"/>
<path d="M440 1695 l0 -735 68 0 69 0 -1 631 c-1 564 1 628 14 608 8 -13 127
-185 264 -384 312 -451 385 -557 499 -722 l91 -133 73 0 73 0 0 735 0 735 -70
0 -71 0 3 -628 3 -627 -81 120 c-44 66 -232 340 -418 610 -186 269 -342 497
-347 507 -8 15 -23 18 -89 18 l-80 0 0 -735z"/>
<path d="M1810 2426 c0 -6 158 -444 170 -471 10 -23 312 -851 342 -938 l20
-58 70 3 69 3 24 58 c13 32 23 59 23 60 1 5 317 841 465 1230 l45 117 -76 0
-77 0 -33 -93 c-43 -116 -48 -129 -182 -492 -170 -458 -238 -647 -246 -685
l-7 -35 -14 52 c-12 46 -140 418 -208 603 -23 63 -159 446 -206 583 l-24 67
-77 0 c-43 0 -78 -2 -78 -4z"/>
</g>
</svg>
